<svg xmlns="http://www.w3.org/2000/svg" viewBox="0 0 32 32">
  <path d="M16 4C11.882813 4 8.640625 7.128906 8.1875 11.125C6.394531 11.425781 4.941406 12.644531 4.34375 14.34375C1.882813 15.054688 0 17.25 0 20C0 23.324219 2.675781 26 6 26L26 26C29.324219 26 32 23.324219 32 20C32 18.238281 31.144531 16.664063 29.90625 15.5625C29.675781 12.046875 26.871094 9.246094 23.34375 9.0625C22.140625 6.132813 19.378906 4 16 4 Z M 16 6C18.761719 6 20.972656 7.769531 21.75 10.28125L21.96875 11L23 11C25.753906 11 28 13.246094 28 16L28 16.5L28.40625 16.8125C29.351563 17.519531 30 18.734375 30 20C30 22.277344 28.277344 24 26 24L6 24C3.722656 24 2 22.277344 2 20C2 17.980469 3.449219 16.414063 5.28125 16.09375L5.9375 15.96875L6.0625 15.3125C6.363281 13.964844 7.554688 13 9 13L10 13L10 12C10 8.628906 12.628906 6 16 6 Z M 16 11.59375L15.28125 12.28125L11.28125 16.28125L12.71875 17.71875L15 15.4375L15 22L17 22L17 15.4375L19.28125 17.71875L20.71875 16.28125L16.71875 12.28125Z" fill="#5B5B5B" />
</svg>